<svg width="28" height="28" viewBox="0 0 28 28" fill="none" xmlns="http://www.w3.org/2000/svg">
<path d="M27.7188 13.2408C27.7191 12.9116 27.5909 12.6021 27.3582 12.3694C26.8804 11.8917 26.1013 11.8898 25.6211 12.3649C25.3584 12.6196 20.8724 17.0924 20.4798 17.4827C20.0957 17.8651 19.4742 17.864 19.0916 17.4801C18.7089 17.096 18.7101 16.4745 19.0942 16.0918C21.4673 13.7261 25.2545 9.95416 27.6294 7.58873C27.8633 7.35598 27.9921 7.0465 27.9924 6.71701C27.9929 6.38753 27.8647 6.07772 27.6317 5.8447L27.5978 5.8108C27.1188 5.33185 26.3385 5.33097 25.8583 5.80877C24.3052 7.35346 19.7961 11.8451 18.1906 13.4444C17.8065 13.8269 17.1851 13.8258 16.8025 13.4418C16.4199 13.0578 16.4209 12.4364 16.8048 12.0537C19.2565 9.60788 22.6258 6.25688 25.0692 3.82188C25.3028 3.5893 25.4316 3.27982 25.432 2.95039C25.4324 2.62095 25.3042 2.31115 25.0713 2.07824L25.0297 2.03657C24.797 1.80398 24.4878 1.67585 24.1588 1.67585C23.8299 1.67585 23.5207 1.80393 23.2881 2.03657L15.0436 10.2809C14.6603 10.6642 14.0388 10.6642 13.6554 10.2809C13.272 9.89756 13.272 9.27599 13.6554 8.89263L20.4196 2.1285C20.6522 1.89586 20.7803 1.5866 20.7803 1.25766C20.7803 0.928716 20.6522 0.619516 20.4196 0.386932L20.3921 0.359369C19.9128 -0.119853 19.1314 -0.120018 18.6513 0.360244L7.6436 11.368C7.33254 11.6791 6.85255 11.7452 6.46898 11.5299C6.0854 11.3146 5.89187 10.8704 5.99544 10.4429L7.87816 2.66815C8.06168 1.91035 7.64759 1.13762 6.91495 0.870693C6.74214 0.807749 6.56457 0.776413 6.38821 0.776413C6.13763 0.776413 5.8893 0.839467 5.65983 0.964427C5.26876 1.17732 4.99883 1.53361 4.89979 1.96766L4.75438 2.60477C4.02108 5.81719 2.81216 9.03897 1.16116 12.1806C0.174169 14.0585 -0.201586 16.256 0.10313 18.368C0.418018 20.5508 1.41141 22.5316 2.97584 24.096C4.89601 26.0162 7.44853 27.0735 10.1638 27.0735H10.1707C12.8885 27.0717 15.4424 26.0108 17.3617 24.0864L19.808 21.6336L27.3577 14.1114C27.5903 13.8794 27.7187 13.57 27.7188 13.2408Z" fill="#E6DECD"/>
<path d="M25.3355 21.3367C25.5138 20.9203 25.3207 20.438 24.9043 20.2598C24.4878 20.0814 24.0056 20.2746 23.8273 20.6911C23.5521 21.3339 23.1594 21.9131 22.6599 22.4125C22.0498 23.0226 21.3289 23.4692 20.5171 23.74C20.0873 23.8833 19.8551 24.3479 19.9984 24.7777C20.113 25.1214 20.4331 25.3387 20.7765 25.3387C20.8625 25.3387 20.95 25.3251 21.0362 25.2964C22.0916 24.9443 23.0283 24.3644 23.8201 23.5726C24.4678 22.9247 24.9777 22.1725 25.3355 21.3367Z" fill="#E6DECD"/>
<path d="M27.5032 21.7892C27.0868 21.6107 26.6045 21.8035 26.426 22.22C26.0427 23.114 25.4962 23.9196 24.8016 24.6142C23.9937 25.422 23.0435 26.0255 21.9773 26.4077C21.5509 26.5606 21.329 27.0303 21.4819 27.4568C21.602 27.7918 21.9176 28.0004 22.2542 28.0004C22.3461 28.0004 22.4395 27.9849 22.531 27.9521C23.827 27.4875 24.9812 26.7547 25.9617 25.7743C26.8045 24.9315 27.468 23.9531 27.9339 22.8664C28.1125 22.45 27.9196 21.9677 27.5032 21.7892Z" fill="#E6DECD"/>
</svg>
